<?xml version="1.0" standalone="no"?>
<!DOCTYPE svg PUBLIC "-//W3C//DTD SVG 20010904//EN"
 "http://www.w3.org/TR/2001/REC-SVG-20010904/DTD/svg10.dtd">
<svg version="1.0" xmlns="http://www.w3.org/2000/svg"
 width="432.000000pt" height="144.000000pt" viewBox="0 0 432.000000 144.000000"
 preserveAspectRatio="xMidYMid meet">

<g transform="translate(0.000000,144.000000) scale(0.100000,-0.100000)"
fill="#000000" stroke="none">
<path d="M605 1411 c-66 -31 -517 -269 -553 -292 -50 -31 -52 -49 -52 -443 0
-412 2 -425 64 -451 31 -13 310 -15 2101 -15 l2065 0 0 49 c0 30 -5 51 -12 53
-7 3 -935 5 -2063 6 l-2050 1 -3 338 c-1 186 0 347 2 359 4 15 80 60 284 167
153 81 289 147 303 147 33 -1 728 -155 737 -164 4 -4 8 -88 10 -187 l3 -179
50 0 49 0 0 195 c0 215 -6 243 -57 263 -25 10 -792 182 -810 182 -5 0 -35 -13
-68 -29z"/>
<path d="M427 1133 l-267 -147 0 -109 c0 -108 0 -109 22 -104 13 3 134 27 270
52 l248 46 164 -15 c90 -9 166 -16 170 -16 3 0 6 81 6 180 0 99 -2 180 -5 180
-5 0 -301 68 -325 75 -8 3 -135 -62 -283 -142z"/>
<path d="M1090 1010 c0 -196 -15 -175 130 -185 47 -3 104 -8 128 -11 l42 -6 0
154 0 154 -142 32 c-79 18 -146 32 -150 32 -5 0 -8 -76 -8 -170z"/>
<path d="M3403 810 c-58 -12 -81 -26 -103 -63 -53 -87 -8 -157 126 -196 94
-28 106 -36 102 -70 -6 -55 -97 -54 -124 2 -15 32 -16 32 -80 29 -64 -4 -64
-4 -58 -30 11 -45 43 -89 77 -105 89 -43 225 -29 282 29 56 56 59 127 7 185
-21 24 -48 37 -122 58 -87 25 -95 29 -95 52 0 18 6 25 24 27 37 6 69 -6 76
-28 5 -17 15 -20 71 -20 54 0 64 3 64 18 0 27 -37 80 -67 95 -37 20 -127 28
-180 17z"/>
<path d="M410 764 c-135 -24 -246 -43 -247 -43 -2 -1 -3 -48 -3 -106 0 -100 1
-105 23 -110 12 -3 130 -27 262 -53 l240 -48 170 12 c94 7 173 13 178 13 4 1
7 80 7 176 0 173 0 175 -22 179 -30 6 -309 26 -339 25 -13 -1 -134 -21 -269
-45z"/>
<path d="M1532 595 c-45 -119 -82 -220 -82 -226 0 -6 27 -9 67 -7 66 3 67 3
77 36 l9 32 82 0 82 0 9 -32 c10 -33 10 -33 82 -36 40 -2 72 -2 72 0 0 2 -37
102 -83 223 l-83 220 -76 3 -75 3 -81 -216z m198 -52 c0 -9 -15 -13 -45 -13
-25 0 -45 3 -45 6 0 3 10 40 22 81 l22 76 23 -69 c13 -37 23 -74 23 -81z"/>
<path d="M1980 585 l0 -225 175 0 175 0 0 55 0 54 -107 3 -107 3 -1 165 0 165
-67 3 -68 3 0 -226z"/>
<path d="M2400 585 l0 -225 65 0 64 0 3 83 3 82 80 5 c86 6 114 18 138 59 26
45 30 93 11 140 -26 67 -66 81 -231 81 l-133 0 0 -225z m224 119 c19 -18 21
-55 4 -72 -7 -7 -31 -12 -55 -12 l-43 0 0 43 c0 24 3 47 7 50 12 13 72 7 87
-9z"/>
<path d="M2915 793 c-4 -10 -33 -88 -65 -173 -32 -85 -68 -179 -79 -208 l-21
-53 72 3 c72 3 72 3 82 36 l9 32 83 0 83 0 7 -35 6 -35 74 0 74 0 -27 73 c-15
39 -53 140 -84 222 l-56 150 -75 3 c-65 2 -77 0 -83 -15z m105 -182 c11 -37
20 -71 20 -75 0 -3 -20 -6 -45 -6 -30 0 -45 4 -45 13 0 16 40 137 45 137 3 0
13 -31 25 -69z"/>
<path d="M3782 592 c-45 -120 -82 -222 -82 -225 0 -4 31 -7 70 -7 l69 0 7 35
6 35 84 0 83 0 9 -32 c8 -33 8 -33 80 -36 40 -2 72 1 71 5 0 4 -37 105 -82
223 l-82 215 -76 3 -75 3 -82 -219z m186 6 l20 -68 -49 0 c-27 0 -49 3 -49 6
0 23 44 144 50 137 4 -4 16 -38 28 -75z"/>
<path d="M1090 606 l0 -176 113 6 c61 4 129 9 150 13 l38 6 2 152 2 151 -50 6
c-27 3 -96 8 -152 12 l-103 7 0 -177z"/>
<path d="M47 113 c-9 -25 -14 -49 -11 -52 4 -3 9 0 11 7 6 16 50 16 56 0 2 -7
8 -10 12 -6 10 9 -25 98 -39 98 -7 0 -19 -21 -29 -47z m43 -4 c0 -5 -7 -9 -15
-9 -9 0 -12 6 -9 15 6 15 24 11 24 -6z"/>
<path d="M140 110 c0 -27 5 -50 10 -50 6 0 10 23 10 50 0 28 -4 50 -10 50 -5
0 -10 -22 -10 -50z"/>
<path d="M1330 110 l0 -50 35 0 c19 0 35 5 35 10 0 6 -11 10 -25 10 -22 0 -25
4 -25 40 0 22 -4 40 -10 40 -5 0 -10 -22 -10 -50z"/>
<path d="M1590 149 c0 -5 5 -7 10 -4 6 3 10 8 10 11 0 2 -4 4 -10 4 -5 0 -10
-5 -10 -11z"/>
<path d="M1990 111 c0 -28 5 -51 10 -51 6 0 10 9 10 19 0 13 8 21 23 23 16 2
22 10 22 28 0 21 -5 26 -32 28 l-33 3 0 -50z m48 21 c2 -7 -3 -12 -12 -12 -9
0 -16 7 -16 16 0 17 22 14 28 -4z"/>
<path d="M2224 147 c-3 -10 -17 -17 -30 -17 -21 0 -24 -5 -24 -36 0 -21 4 -33
10 -29 6 3 10 17 10 31 0 34 28 31 32 -3 2 -19 10 -29 23 -31 16 -3 18 -1 8 9
-15 15 -17 46 -4 51 5 2 3 12 -4 22 -13 17 -15 17 -21 3z"/>
<path d="M2700 144 c0 -10 -6 -14 -15 -10 -16 6 -45 -18 -45 -38 0 -20 23 -35
48 -33 19 1 22 7 22 49 0 26 -2 48 -5 48 -3 0 -5 -7 -5 -16z m-5 -34 c10 -16
-16 -43 -28 -31 -11 11 -2 41 12 41 5 0 13 -5 16 -10z"/>
<path d="M2857 113 c-9 -25 -14 -49 -11 -52 4 -3 9 0 11 7 6 15 45 16 61 0 9
-9 12 -9 12 0 0 24 -33 92 -44 92 -6 0 -19 -21 -29 -47z m43 -4 c0 -5 -7 -9
-15 -9 -9 0 -12 6 -9 15 6 15 24 11 24 -6z"/>
<path d="M2950 110 c0 -27 5 -50 10 -50 6 0 10 23 10 50 0 28 -4 50 -10 50 -5
0 -10 -22 -10 -50z"/>
<path d="M2993 146 c-12 -22 -4 -86 12 -86 9 0 11 14 9 46 -4 54 -9 62 -21 40z"/>
<path d="M3453 144 c-7 -18 19 -44 44 -44 7 0 13 -5 13 -11 0 -7 -11 -9 -31
-5 -22 4 -29 2 -27 -7 6 -18 53 -20 67 -4 16 20 4 44 -26 52 -19 4 -23 9 -15
17 8 8 16 7 28 -3 15 -12 17 -12 12 1 -7 22 -57 25 -65 4z"/>
<path d="M3597 113 c-9 -25 -14 -49 -11 -52 4 -3 9 0 11 7 3 6 15 12 28 12 13
0 25 -6 28 -12 2 -7 8 -10 12 -6 10 9 -25 98 -39 98 -7 0 -19 -21 -29 -47z
m43 -4 c0 -5 -7 -9 -15 -9 -9 0 -12 6 -9 15 6 15 24 11 24 -6z"/>
<path d="M3817 143 c5 -12 2 -15 -10 -10 -18 7 -47 -16 -47 -37 0 -20 23 -35
48 -33 19 1 22 7 22 49 0 26 -4 48 -10 48 -5 0 -6 -8 -3 -17z m-4 -37 c7 -19
-18 -42 -28 -26 -8 13 1 40 14 40 5 0 11 -6 14 -14z"/>
<path d="M3982 148 c-17 -17 -15 -63 2 -78 22 -17 60 -8 64 15 3 16 1 18 -9 7
-24 -23 -49 -15 -49 17 0 35 15 48 36 30 16 -13 30 -6 19 10 -8 15 -48 14 -63
-1z"/>
<path d="M4114 135 c11 -44 25 -75 35 -75 9 0 41 71 41 90 0 23 -19 8 -25 -20
-4 -16 -10 -30 -15 -30 -5 0 -11 14 -15 30 -4 17 -11 30 -17 30 -6 0 -8 -10
-4 -25z"/>
<path d="M1037 143 c-9 -17 6 -83 19 -83 11 0 12 4 2 19 -9 15 -9 23 0 34 10
11 9 17 -2 26 -8 7 -16 8 -19 4z"/>
<path d="M1707 143 c-19 -19 -3 -83 21 -83 12 0 13 3 4 12 -15 15 -16 45 -1
50 7 2 6 8 -3 16 -8 6 -18 9 -21 5z"/>
<path d="M198 132 c-14 -3 -18 -13 -17 -40 1 -35 2 -36 8 -8 9 41 31 46 31 7
0 -17 5 -31 10 -31 6 0 10 14 10 31 0 36 21 35 27 -1 6 -38 13 -36 13 3 0 21
-3 37 -7 38 -34 3 -61 4 -75 1z"/>
<path d="M313 124 c-17 -14 -17 -15 6 -8 16 4 21 3 17 -5 -4 -6 -14 -11 -22
-11 -29 0 -11 -35 19 -36 24 -1 27 2 27 31 0 38 -20 50 -47 29z m27 -44 c0 -5
-4 -10 -10 -10 -5 0 -10 5 -10 10 0 6 5 10 10 10 6 0 10 -4 10 -10z"/>
<path d="M395 126 c-26 -19 -16 -61 14 -61 13 0 27 7 29 15 4 12 3 13 -10 3
-17 -15 -28 -7 -28 19 0 15 5 18 20 13 11 -3 20 -2 20 3 0 16 -27 21 -45 8z"/>
<path d="M470 125 c-28 -34 13 -87 44 -55 8 9 6 11 -11 5 -14 -4 -23 -2 -23 4
0 6 9 11 20 11 25 0 26 26 1 39 -14 8 -22 7 -31 -4z m30 -15 c0 -5 -4 -10 -10
-10 -5 0 -10 5 -10 10 0 6 5 10 10 10 6 0 10 -4 10 -10z"/>
<path d="M563 132 c-19 -3 -23 -10 -23 -38 0 -19 5 -34 10 -34 6 0 10 14 10
31 0 38 24 35 28 -4 4 -29 22 -27 22 2 0 27 -23 47 -47 43z"/>
<path d="M643 133 c-22 -8 -14 -21 10 -16 18 3 18 2 -6 -12 -35 -20 -30 -39 9
-42 28 -1 30 1 26 32 -4 34 -16 46 -39 38z m22 -53 c-3 -5 -10 -10 -16 -10 -5
0 -9 5 -9 10 0 6 7 10 16 10 8 0 12 -4 9 -10z"/>
<path d="M723 132 c-19 -3 -23 -10 -23 -38 0 -40 17 -46 22 -7 4 39 28 42 28
4 0 -17 5 -31 10 -31 6 0 10 14 10 30 0 17 5 30 10 30 6 0 10 -13 10 -30 0
-16 5 -30 10 -30 11 0 14 70 3 71 -31 3 -61 4 -80 1z"/>
<path d="M883 132 c-16 -11 -21 -35 -11 -55 10 -19 43 -23 54 -6 4 7 0 9 -14
5 -11 -4 -23 -2 -27 4 -4 6 4 10 19 10 16 0 26 6 26 15 0 17 -32 36 -47 27z
m27 -22 c0 -5 -4 -10 -10 -10 -5 0 -10 5 -10 10 0 6 5 10 10 10 6 0 10 -4 10
-10z"/>
<path d="M1097 129 c-23 -13 -22 -56 2 -64 28 -9 51 5 51 31 0 29 -28 46 -53
33z m31 -31 c-2 -13 -7 -23 -13 -23 -5 0 -11 10 -13 23 -2 15 2 22 13 22 11 0
15 -7 13 -22z"/>
<path d="M1427 129 c-23 -13 -22 -56 2 -64 28 -9 51 5 51 31 0 29 -28 46 -53
33z m31 -31 c-2 -13 -7 -23 -13 -23 -5 0 -11 10 -13 23 -2 15 2 22 13 22 11 0
15 -7 13 -22z"/>
<path d="M1510 130 c-6 -4 -10 -20 -8 -36 2 -23 8 -29 26 -28 12 0 22 -3 22
-8 0 -4 -12 -8 -26 -8 -14 0 -23 -4 -19 -10 8 -13 42 -13 50 0 3 5 8 27 11 49
4 35 2 39 -20 43 -14 3 -30 2 -36 -2z m36 -21 c10 -17 -13 -36 -27 -22 -12 12
-4 33 11 33 5 0 12 -5 16 -11z"/>
<path d="M1629 124 c-10 -13 -10 -17 2 -25 8 -5 17 -9 22 -9 4 0 7 -5 7 -11 0
-6 -9 -8 -21 -4 -15 5 -19 4 -15 -4 10 -16 41 -14 55 3 10 12 7 18 -16 31 -24
14 -24 15 -5 12 25 -6 30 8 6 17 -21 8 -20 8 -35 -10z"/>
<path d="M1805 126 c-26 -19 -16 -61 14 -61 13 0 27 7 29 15 4 12 3 13 -10 2
-12 -10 -18 -9 -28 2 -16 20 -3 38 21 31 10 -4 19 -2 19 3 0 16 -27 21 -45 8z"/>
<path d="M1883 133 c-21 -8 -15 -22 7 -16 29 8 25 -6 -6 -17 -34 -13 -26 -34
14 -38 30 -3 32 -1 32 27 0 31 -23 52 -47 44z m27 -47 c0 -11 -19 -15 -25 -6
-3 5 1 10 9 10 9 0 16 -2 16 -4z"/>
<path d="M2097 129 c-22 -13 -22 -58 -1 -66 39 -15 73 46 37 65 -12 7 -25 7
-36 1z m31 -31 c-2 -13 -7 -23 -13 -23 -5 0 -11 10 -13 23 -2 15 2 22 13 22
11 0 15 -7 13 -22z"/>
<path d="M2373 133 c-22 -8 -14 -21 10 -16 18 3 18 2 -6 -12 -35 -20 -30 -39
9 -42 28 -1 30 1 26 32 -4 34 -16 46 -39 38z m22 -53 c-3 -5 -10 -10 -16 -10
-5 0 -9 5 -9 10 0 6 7 10 16 10 8 0 12 -4 9 -10z"/>
<path d="M2543 133 c-22 -8 -14 -21 9 -15 14 3 19 2 14 -6 -4 -7 -14 -12 -22
-12 -8 0 -14 -9 -14 -20 0 -16 7 -20 30 -20 27 0 30 3 30 30 0 30 -24 51 -47
43z m27 -47 c0 -11 -19 -15 -25 -6 -3 5 1 10 9 10 9 0 16 -2 16 -4z"/>
<path d="M2746 127 c-23 -17 -18 -60 8 -65 10 -2 23 2 30 9 8 9 7 11 -6 6 -10
-3 -20 -2 -23 3 -4 6 3 10 14 10 27 0 34 15 15 34 -19 19 -16 19 -38 3z m24
-17 c0 -5 -4 -10 -10 -10 -5 0 -10 5 -10 10 0 6 5 10 10 10 6 0 10 -4 10 -10z"/>
<path d="M3053 133 c-20 -7 -15 -23 5 -17 11 4 9 0 -7 -14 -29 -23 -21 -41 17
-40 25 1 27 4 24 34 -4 33 -17 45 -39 37z m22 -53 c-3 -5 -10 -10 -16 -10 -5
0 -9 5 -9 10 0 6 7 10 16 10 8 0 12 -4 9 -10z"/>
<path d="M3133 132 c-19 -3 -23 -10 -23 -38 0 -19 5 -34 10 -34 6 0 10 14 10
30 0 20 5 30 15 30 10 0 15 -10 15 -31 0 -17 4 -28 10 -24 6 3 10 17 10 31 0
13 5 24 10 24 6 0 10 -13 10 -30 0 -16 5 -30 10 -30 11 0 14 70 3 71 -31 3
-61 4 -80 1z"/>
<path d="M3298 132 c-13 -2 -18 -13 -18 -38 0 -19 5 -34 10 -34 6 0 10 13 10
29 0 16 6 31 13 34 17 6 5 14 -15 9z"/>
<path d="M3353 133 c-20 -7 -15 -23 5 -17 11 4 9 0 -7 -14 -28 -23 -21 -43 14
-40 21 2 25 8 25 34 0 32 -14 45 -37 37z m17 -53 c0 -5 -4 -10 -10 -10 -5 0
-10 5 -10 10 0 6 5 10 10 10 6 0 10 -4 10 -10z"/>
<path d="M3865 126 c-22 -16 -16 -60 9 -64 10 -2 23 2 30 9 8 9 7 11 -6 6 -10
-3 -20 -2 -23 3 -4 6 3 10 14 10 14 0 21 6 21 19 0 24 -23 33 -45 17z m25 -16
c0 -5 -4 -10 -10 -10 -5 0 -10 5 -10 10 0 6 5 10 10 10 6 0 10 -4 10 -10z"/>
<path d="M830 95 c0 -19 5 -35 10 -35 6 0 10 16 10 35 0 19 -4 35 -10 35 -5 0
-10 -16 -10 -35z"/>
<path d="M950 95 c0 -19 5 -35 10 -35 6 0 10 14 10 31 0 39 22 34 31 -7 6 -27
7 -27 8 9 1 35 -1 37 -29 37 -28 0 -30 -3 -30 -35z"/>
<path d="M1214 95 c9 -20 11 -37 5 -40 -12 -8 -12 -25 1 -25 10 0 33 39 44 78
4 12 3 22 -2 22 -5 0 -13 -10 -16 -22 l-7 -23 -11 23 c-18 36 -30 25 -14 -13z"/>
<path d="M1593 95 c0 -22 2 -30 4 -17 2 12 2 30 0 40 -3 9 -5 -1 -4 -23z"/>
<path d="M1750 95 c0 -19 5 -35 10 -35 6 0 10 16 10 35 0 19 -4 35 -10 35 -5
0 -10 -16 -10 -35z"/>
<path d="M2272 98 c3 -29 6 -33 33 -33 27 0 30 4 33 33 4 38 -15 44 -20 5 -4
-39 -28 -42 -28 -4 0 17 -5 31 -11 31 -6 0 -9 -14 -7 -32z"/>
<path d="M2430 101 c0 -17 5 -33 10 -36 6 -3 10 5 10 19 0 14 8 30 18 35 14 9
13 10 -10 11 -24 0 -28 -4 -28 -29z"/>
<path d="M2490 95 c0 -19 5 -35 10 -35 6 0 10 16 10 35 0 19 -4 35 -10 35 -5
0 -10 -16 -10 -35z"/>
<path d="M3240 95 c0 -19 5 -35 10 -35 6 0 10 16 10 35 0 19 -4 35 -10 35 -5
0 -10 -16 -10 -35z"/>
<path d="M3690 70 c0 -5 5 -10 10 -10 6 0 10 5 10 10 0 6 -4 10 -10 10 -5 0
-10 -4 -10 -10z"/>
<path d="M4070 70 c0 -5 5 -10 10 -10 6 0 10 5 10 10 0 6 -4 10 -10 10 -5 0
-10 -4 -10 -10z"/>
<path d="M4190 70 c0 -5 5 -10 10 -10 6 0 10 5 10 10 0 6 -4 10 -10 10 -5 0
-10 -4 -10 -10z"/>
</g>
</svg>
